<?xml version="1.0" standalone="no"?>
<!DOCTYPE svg PUBLIC "-//W3C//DTD SVG 20010904//EN"
 "http://www.w3.org/TR/2001/REC-SVG-20010904/DTD/svg10.dtd">
<svg version="1.0" xmlns="http://www.w3.org/2000/svg"
 width="885.000000pt" height="1280.000000pt" viewBox="0 0 885.000000 1280.000000"
 preserveAspectRatio="xMidYMid meet">
<g transform="translate(0.000000,1280.000000) scale(0.100000,-0.100000)"
fill="#000000" stroke="none">
<path d="M610 12780 c-47 -10 -107 -24 -135 -33 -61 -18 -225 -85 -242 -99
-21 -17 11 -245 54 -382 114 -362 376 -610 855 -806 112 -46 148 -57 148 -45
0 5 97 644 103 682 3 15 -11 42 -39 80 -70 93 -79 131 -79 328 l0 170 -113 38
c-128 43 -341 87 -417 86 -27 0 -88 -9 -135 -19z"/>
<path d="M1634 12285 c-27 -13 -72 -48 -100 -77 l-52 -53 -36 -390 c-35 -372
-54 -500 -412 -2825 -206 -1339 -373 -2440 -372 -2447 3 -11 221 66 240 85 5
5 49 267 99 583 49 316 112 716 139 889 93 591 311 1984 406 2590 52 333 106
650 119 705 35 135 99 281 229 519 l108 199 -20 42 c-32 67 -116 160 -165 184
-58 28 -121 27 -183 -4z"/>
<path d="M1964 11733 c-117 -110 -180 -258 -200 -469 l-6 -72 53 -15 c155 -46
341 -81 974 -186 673 -113 971 -174 1287 -265 531 -153 916 -370 1110 -626 58
-75 130 -219 153 -305 25 -91 31 -318 11 -433 -30 -173 -122 -417 -229 -607
-44 -79 -44 -80 -28 -111 55 -105 508 -834 518 -834 16 0 734 277 745 288 5 5
-59 129 -142 277 -82 147 -150 274 -150 282 0 9 22 45 48 82 163 226 282 486
329 718 22 110 24 357 4 458 -73 374 -304 717 -691 1027 -256 205 -628 413
-905 506 -103 35 -226 47 -865 82 -955 52 -1367 102 -1842 221 -64 16 -118 29
-120 29 -2 0 -27 -21 -54 -47z"/>
<path d="M7465 8803 c-259 -6 -602 -35 -875 -74 -138 -20 -159 -24 -149 -33 2
-2 159 -87 349 -189 190 -102 345 -191 345 -197 0 -11 -4694 -1830 -4722
-1830 -7 0 -150 76 -317 170 l-305 169 -886 -341 c-486 -188 -881 -345 -877
-349 4 -4 149 -55 322 -114 173 -58 324 -112 336 -120 19 -12 786 -658 841
-708 l23 -20 372 143 c205 79 378 147 384 152 7 5 67 133 134 286 68 152 130
284 139 294 9 9 203 88 431 176 228 88 1284 496 2347 906 1063 410 1937 746
1942 746 6 0 11 -6 11 -14 0 -7 -59 -179 -130 -381 -72 -202 -129 -369 -127
-371 4 -4 276 191 397 284 440 341 886 756 1283 1194 53 59 97 111 97 116 0
17 -381 67 -655 87 -213 15 -529 23 -710 18z"/>
<path d="M6205 7355 l-370 -144 3 -28 c2 -15 44 -238 93 -496 49 -257 89 -469
89 -471 0 -2 53 -22 118 -45 149 -52 354 -152 469 -227 119 -79 274 -235 337
-341 219 -369 150 -844 -214 -1473 -190 -328 -390 -604 -955 -1315 -289 -364
-505 -661 -505 -693 0 -14 103 -107 169 -151 120 -81 211 -111 337 -111 l79 1
75 111 c263 395 520 690 1220 1403 563 573 561 571 670 830 233 551 317 1118
229 1548 -55 274 -165 482 -354 673 -201 202 -455 334 -809 419 -77 19 -142
39 -146 45 -4 6 -38 146 -76 311 -38 164 -73 299 -79 298 -5 0 -176 -65 -380
-144z"/>
<path d="M579 5838 c-33 -65 -24 -138 32 -243 l44 -84 2220 -1856 c1603 -1340
2307 -1935 2533 -2141 l313 -284 88 0 c138 0 203 31 242 115 22 47 25 161 8
247 l-11 56 -167 57 c-323 111 -493 189 -621 284 -36 26 -1095 913 -2355 1969
-1259 1057 -2293 1922 -2297 1922 -4 0 -17 -19 -29 -42z"/>
<path d="M681 5028 c-78 -133 -139 -243 -137 -245 3 -4 563 211 571 219 6 6
-274 268 -287 268 -3 0 -70 -109 -147 -242z"/>
<path d="M4999 1533 c-260 -550 -271 -940 -38 -1324 49 -81 135 -199 145 -199
3 0 40 12 82 26 115 39 269 115 338 167 129 98 257 260 341 431 l38 78 -81 77
c-146 137 -189 210 -201 338 l-6 63 -273 222 c-150 123 -277 224 -283 226 -6
2 -34 -45 -62 -105z"/>
</g>
</svg>
