<?xml version="1.0" standalone="no"?>
<!DOCTYPE svg PUBLIC "-//W3C//DTD SVG 20010904//EN"
 "http://www.w3.org/TR/2001/REC-SVG-20010904/DTD/svg10.dtd">
<svg version="1.0" xmlns="http://www.w3.org/2000/svg"
 width="73.000000pt" height="264.000000pt" viewBox="0 0 73.000000 264.000000"
 preserveAspectRatio="xMidYMid meet">

<g transform="translate(0.000000,264.000000) scale(0.100000,-0.100000)"
fill="#000000" stroke="none">
<path d="M0 1320 l0 -1320 365 0 365 0 0 1320 0 1320 -365 0 -365 0 0 -1320z
m487 1141 l98 -68 3 -937 2 -936 -207 2 -208 3 -3 930 -2 931 102 72 c56 40
105 72 110 72 4 0 51 -31 105 -69z m-327 -1867 l0 -76 -22 14 c-20 13 -55 90
-57 126 -1 8 13 12 39 12 l40 0 0 -76z m-38 -69 c18 -12 56 -15 195 -15 l173
0 0 -185 c0 -102 -3 -185 -6 -185 -4 0 -49 39 -100 86 -61 55 -98 83 -106 78
-7 -4 -54 -45 -105 -92 l-92 -84 -3 232 c-2 127 -1 234 2 237 2 2 8 -9 13 -26
4 -17 17 -37 29 -46z"/>
</g>
</svg>
