<?xml version="1.0" standalone="no"?>
<!DOCTYPE svg PUBLIC "-//W3C//DTD SVG 20010904//EN"
 "http://www.w3.org/TR/2001/REC-SVG-20010904/DTD/svg10.dtd">
<svg version="1.0" xmlns="http://www.w3.org/2000/svg"
 width="1024.000000pt" height="883.000000pt" viewBox="0 0 1024.000000 883.000000"
 preserveAspectRatio="xMidYMid meet">

<g transform="translate(0.000000,883.000000) scale(0.100000,-0.100000)"
fill="#000000" stroke="none">
<path d="M7686 8798 c-59 -42 -186 -191 -555 -653 -162 -203 -313 -389 -335
-413 -59 -64 -106 -85 -180 -80 -53 4 -79 14 -201 81 -323 178 -628 258 -1090
287 -544 34 -1102 -16 -1980 -176 -308 -57 -373 -57 -459 -3 -30 19 -112 86
-182 149 -329 297 -619 526 -699 553 -112 38 -195 8 -316 -113 -131 -133 -266
-320 -516 -721 -465 -742 -1067 -1887 -1158 -2202 -35 -120 -2 -167 185 -262
71 -36 250 -138 397 -226 323 -194 401 -235 562 -294 143 -51 168 -66 183
-103 32 -82 100 -385 105 -467 l5 -90 -44 -60 c-25 -33 -107 -134 -183 -225
-76 -91 -159 -198 -186 -238 -137 -209 -155 -426 -49 -590 124 -193 400 -263
616 -157 64 31 90 55 295 272 620 656 777 831 821 915 30 59 32 69 33 168 0
103 -1 108 -39 185 -50 101 -133 186 -231 235 -69 34 -72 35 -195 35 -163 0
-208 -15 -369 -123 -70 -46 -130 -84 -135 -85 -12 -3 -26 54 -86 335 -27 130
-50 257 -50 283 0 57 9 74 285 570 482 863 608 1091 740 1335 153 284 194 349
254 403 53 47 145 94 224 112 138 32 851 141 1150 175 432 50 888 52 1282 6
121 -15 228 -29 238 -32 21 -7 22 -20 1 -28 -24 -9 -330 -52 -609 -85 -378
-46 -477 -69 -639 -154 -86 -45 -94 -51 -453 -348 -351 -291 -387 -335 -388
-469 0 -64 4 -82 27 -121 55 -93 204 -205 363 -272 211 -89 436 -87 674 4 318
123 396 140 1051 234 347 50 452 55 515 26 22 -10 141 -105 265 -211 280 -241
2086 -1821 2233 -1954 175 -159 213 -226 205 -365 -6 -103 -49 -191 -138 -281
-112 -113 -305 -230 -381 -230 -84 0 -128 28 -352 222 -711 616 -869 748 -936
780 -59 28 -135 28 -196 -2 -101 -49 -112 -140 -33 -252 51 -71 97 -112 598
-538 510 -433 565 -484 584 -530 50 -124 -11 -351 -146 -547 -63 -92 -174
-208 -212 -223 -52 -19 -119 -12 -167 18 -56 36 -299 227 -834 653 -231 184
-436 347 -456 362 -32 24 -45 27 -113 27 -132 0 -176 -39 -176 -154 0 -78 17
-112 91 -181 76 -70 558 -458 909 -732 277 -215 318 -253 354 -326 23 -44 26
-64 26 -149 0 -253 -92 -429 -268 -515 -51 -25 -68 -27 -162 -28 -103 0 -108
1 -180 37 -55 28 -158 106 -385 294 -374 308 -737 603 -814 661 -72 54 -210
113 -281 120 -50 5 -59 3 -87 -21 -41 -35 -56 -83 -51 -162 6 -99 -27 -67 557
-537 697 -562 810 -657 821 -693 9 -26 8 -47 -4 -94 -42 -162 -159 -287 -362
-386 -181 -88 -257 -84 -419 24 -323 216 -1078 769 -1208 884 l-37 33 126 140
c168 187 245 284 280 353 26 50 29 70 32 162 3 88 0 117 -18 170 -43 128 -130
227 -248 283 -64 30 -73 32 -188 32 l-121 0 -86 -43 -86 -43 -177 -210 c-97
-116 -280 -331 -408 -477 -420 -485 -416 -479 -424 -597 -10 -161 102 -346
258 -425 181 -91 378 -66 531 67 30 26 106 103 169 170 l114 123 25 -17 c14
-9 222 -162 463 -339 791 -586 905 -661 1051 -699 278 -70 594 38 839 286 97
99 174 229 233 391 37 105 50 115 179 138 233 41 365 114 494 274 114 140 173
292 212 545 27 169 39 191 130 241 99 54 157 97 243 179 177 169 273 361 347
691 46 204 32 186 190 242 270 96 449 247 563 473 74 149 124 372 112 499 -17
184 -88 297 -267 429 -87 65 -171 136 -177 149 -1 5 26 53 62 106 154 232 240
457 312 820 32 160 54 227 94 285 29 43 158 186 426 472 279 299 345 383 345
439 0 52 -38 108 -123 182 -533 465 -1969 1705 -2121 1833 -106 88 -180 131
-232 131 -20 0 -49 -12 -78 -32z m195 -500 c65 -47 421 -333 594 -477 211
-175 390 -331 770 -671 182 -162 376 -335 433 -384 61 -53 99 -93 95 -100 -10
-17 -504 -555 -552 -600 -37 -36 -42 -38 -58 -24 -10 8 -173 143 -363 298
-669 550 -1590 1311 -1594 1318 -4 7 168 218 426 520 125 146 131 152 167 152
27 0 51 -10 82 -32z m-5704 -330 c120 -112 251 -232 291 -267 81 -72 112 -115
112 -156 0 -17 -44 -106 -114 -229 -112 -198 -373 -669 -921 -1666 -278 -505
-309 -560 -324 -560 -5 0 -181 101 -392 224 -280 163 -385 229 -387 243 -3 21
281 596 459 928 263 493 492 880 742 1255 130 195 299 430 309 430 4 0 105
-91 225 -202z"/>
<path d="M2900 3862 c-116 -39 -145 -62 -384 -312 -513 -537 -801 -897 -865
-1081 -100 -288 79 -589 387 -650 l62 -13 89 43 c88 43 90 45 262 239 648 729
990 1126 1021 1184 20 38 23 57 23 158 0 112 -1 117 -37 193 -46 97 -127 181
-213 222 -53 25 -73 29 -175 32 -91 2 -126 -1 -170 -15z"/>
<path d="M3754 3160 c-151 -22 -238 -82 -429 -291 -364 -400 -807 -904 -883
-1005 -196 -262 -122 -599 164 -740 76 -38 81 -39 184 -39 105 0 108 1 191 42
108 54 148 95 585 603 452 527 638 750 684 821 126 196 41 459 -183 564 -102
49 -197 62 -313 45z"/>
</g>
</svg>
